<svg width="20" height="23" viewBox="0 0 20 23" fill="none" xmlns="http://www.w3.org/2000/svg">
  <path
    d="M8.17383 22.9697C8.66797 22.9697 9.05469 22.583 9.05469 22.0996V1.39941C9.05469 0.916016 8.66797 0.529297 8.17383 0.529297C7.69043 0.529297 7.3252 0.916016 7.3252 1.39941V22.0996C7.3252 22.583 7.69043 22.9697 8.17383 22.9697ZM15.4141 20.585C15.8975 20.585 16.2734 20.1982 16.2734 19.7256V3.77344C16.2734 3.30078 15.8975 2.90332 15.4141 2.90332C14.9092 2.90332 14.5439 3.30078 14.5439 3.77344V19.7256C14.5439 20.1982 14.9092 20.585 15.4141 20.585ZM4.56445 18.6406C5.05859 18.6406 5.43457 18.2539 5.43457 17.7705V5.72852C5.43457 5.24512 5.05859 4.84766 4.56445 4.84766C4.08105 4.84766 3.70508 5.24512 3.70508 5.72852V17.7705C3.70508 18.2539 4.08105 18.6406 4.56445 18.6406ZM11.7939 17.3301C12.2881 17.3301 12.6641 16.9541 12.6641 16.4707V7.02832C12.6641 6.54492 12.2881 6.1582 11.7939 6.1582C11.2998 6.1582 10.9346 6.54492 10.9346 7.02832V16.4707C10.9346 16.9541 11.2998 17.3301 11.7939 17.3301ZM19.0234 15.1709C19.5068 15.1709 19.8936 14.7842 19.8936 14.3115V9.1875C19.8936 8.71484 19.5068 8.31738 19.0234 8.31738C18.5293 8.31738 18.1641 8.71484 18.1641 9.1875V14.3115C18.1641 14.7842 18.5293 15.1709 19.0234 15.1709ZM0.944336 14.2471C1.44922 14.2471 1.8252 13.8604 1.8252 13.377V10.1221C1.8252 9.63867 1.44922 9.24121 0.944336 9.24121C0.460938 9.24121 0.0957031 9.63867 0.0957031 10.1221V13.377C0.0957031 13.8604 0.460938 14.2471 0.944336 14.2471Z"
    fill="#565656" />
</svg>
