<svg width="30" height="17" viewBox="0 0 30 17" fill="none" xmlns="http://www.w3.org/2000/svg">
<path d="M13.207 16.8984C14.125 16.8984 14.8965 16.2051 14.8965 14.9551V9.32031C15.0332 9.83789 15.4238 10.2676 16.0293 10.6191L26.0684 16.5078C26.5078 16.7715 26.8984 16.8984 27.3574 16.8984C28.2656 16.8984 29.0371 16.2051 29.0371 14.9551V2.875C29.0371 1.625 28.2754 0.941406 27.3574 0.941406C26.9082 0.941406 26.5176 1.05859 26.0684 1.32227L16.0293 7.21094C15.4141 7.57227 15.0234 7.98242 14.8965 8.5V2.875C14.8965 1.625 14.1348 0.941406 13.2168 0.941406C12.7676 0.941406 12.377 1.05859 11.9277 1.32227L1.88867 7.21094C1.11719 7.66992 0.707031 8.1875 0.707031 8.91016C0.707031 9.62305 1.12695 10.1699 1.88867 10.6191L11.9277 16.5078C12.3672 16.7715 12.7578 16.8984 13.207 16.8984Z" fill="#111111"/>
</svg>
