<svg width="22" height="18" viewBox="0 0 22 18" fill="none" xmlns="http://www.w3.org/2000/svg">
<path d="M3.06348 17.9512H18.9365C20.8789 17.9512 21.9072 16.9316 21.9072 15.0068V5.76953C21.9072 3.84473 20.8789 2.81641 18.9365 2.81641H16.6953C16.0186 2.81641 15.7812 2.70215 15.3418 2.25391L14.6475 1.5332C14.1816 1.0498 13.707 0.821289 12.8193 0.821289H9.13672C8.24902 0.821289 7.77441 1.0498 7.30859 1.5332L6.61426 2.25391C6.1748 2.70215 5.9375 2.81641 5.25195 2.81641H3.06348C1.12109 2.81641 0.0839844 3.84473 0.0839844 5.76953V15.0068C0.0839844 16.9316 1.12109 17.9512 3.06348 17.9512ZM11 15.0947C8.38965 15.0947 6.28906 13.0029 6.28906 10.375C6.28906 7.75586 8.38965 5.65527 11 5.65527C13.6104 5.65527 15.7021 7.75586 15.7021 10.375C15.7021 13.0029 13.6104 15.0947 11 15.0947ZM16.2559 7.14941C16.2559 6.50781 16.8096 5.9541 17.46 5.9541C18.1016 5.9541 18.6553 6.50781 18.6553 7.14941C18.6553 7.80859 18.1104 8.33594 17.46 8.34473C16.8008 8.34473 16.2559 7.81738 16.2559 7.14941ZM11 13.3457C12.6436 13.3457 13.9619 12.0273 13.9619 10.375C13.9619 8.73145 12.6436 7.4043 11 7.4043C9.35645 7.4043 8.03809 8.73145 8.03809 10.375C8.03809 12.0273 9.36523 13.3457 11 13.3457Z" fill="white"/>
</svg>
