<svg width="10" height="21" viewBox="0 0 10 21" fill="none" xmlns="http://www.w3.org/2000/svg">
<path d="M0.271484 2.99902H9.71973V2.44531C9.71973 1.1709 9.06055 0.511719 7.83008 0.511719H2.16992C0.939453 0.511719 0.271484 1.1709 0.271484 2.44531V2.99902ZM3.96289 20.7529H6.03711C7.25879 20.7529 7.92676 20.0938 7.92676 18.8193V9.8457C7.92676 8.97559 8.12012 8.36035 8.44531 7.85938L8.99902 7.0332C9.45605 6.3125 9.71973 5.68848 9.71973 4.91504V4.2207H0.271484V4.91504C0.271484 5.68848 0.535156 6.3125 1.00098 7.0332L1.5459 7.85938C1.87109 8.36035 2.06445 8.97559 2.06445 9.8457V18.8193C2.06445 20.0938 2.73242 20.7529 3.96289 20.7529ZM5 14.1348C4.21777 14.1348 3.70801 13.5723 3.70801 12.7725V10.3379C3.70801 9.5293 4.21777 8.98438 5 8.99316C5.78223 9.00195 6.2832 9.54688 6.2832 10.3379V12.7725C6.2832 13.5723 5.78223 14.1348 5 14.1348ZM5 13.4668C5.42188 13.4668 5.79102 13.1064 5.79102 12.6758C5.79102 12.2539 5.42188 11.8848 5 11.8848C4.56934 11.8848 4.20898 12.2539 4.20898 12.6758C4.20898 13.1064 4.56934 13.4668 5 13.4668Z" fill="white"/>
</svg>
