<svg width="30" height="17" viewBox="0 0 30 17" fill="none" xmlns="http://www.w3.org/2000/svg">
<path d="M2.63281 16.8984C3.08203 16.8984 3.47266 16.7715 3.91211 16.5078L13.9512 10.6191C14.5664 10.2676 14.957 9.83789 15.0938 9.32031V14.9551C15.0938 16.2051 15.8555 16.8984 16.7734 16.8984C17.2227 16.8984 17.623 16.7715 18.0625 16.5078L28.1016 10.6191C28.8535 10.1699 29.2832 9.62305 29.2832 8.91016C29.2832 8.1875 28.873 7.66992 28.1016 7.21094L18.0625 1.32227C17.6133 1.05859 17.2227 0.941406 16.7637 0.941406C15.8555 0.941406 15.0938 1.625 15.0938 2.875V8.5C14.957 7.98242 14.5664 7.57227 13.9512 7.21094L3.91211 1.32227C3.47266 1.05859 3.08203 0.941406 2.62305 0.941406C1.70508 0.941406 0.943359 1.625 0.943359 2.875V14.9551C0.943359 16.2051 1.71484 16.8984 2.63281 16.8984Z" fill="#111111"/>
</svg>
