<svg width="25" height="25" viewBox="0 0 25 25" fill="none" xmlns="http://www.w3.org/2000/svg">
<path d="M0.359375 12.5391C0.359375 15.8672 1.70703 18.8789 3.86328 21.0703C4.07422 21.2812 4.29688 21.2695 4.48438 21.0469L5.04688 20.4141C5.23438 20.2031 5.22266 20.0156 5.03516 19.8164C3.20703 17.9297 2.07031 15.3516 2.07031 12.5391C2.07031 6.85547 6.78125 2.12109 12.5 2.12109C18.2188 2.12109 22.9297 6.85547 22.9297 12.5391C22.9297 15.3516 21.793 17.9297 19.9648 19.8047C19.7773 20.0156 19.7656 20.2031 19.9531 20.4141L20.5156 21.0469C20.7031 21.2695 20.9258 21.2812 21.125 21.0703C23.293 18.8789 24.6406 15.8672 24.6406 12.5391C24.6406 5.88281 19.2031 0.398438 12.5 0.398438C5.79688 0.398438 0.359375 5.88281 0.359375 12.5391ZM3.76953 12.5391C3.76953 14.8359 4.66016 16.9219 6.125 18.4922C6.33594 18.7148 6.57031 18.7031 6.75781 18.4922L7.32031 17.8711C7.51953 17.6836 7.49609 17.4844 7.30859 17.2617C6.17188 16.0078 5.49219 14.3555 5.49219 12.5391C5.49219 8.70703 8.65625 5.53125 12.5 5.53125C16.3438 5.53125 19.5078 8.70703 19.5078 12.5391C19.5078 14.3555 18.8281 16.0078 17.6914 17.25C17.5039 17.4727 17.4922 17.6719 17.6797 17.8711L18.2539 18.4922C18.4414 18.7031 18.6641 18.7148 18.875 18.4922C20.3398 16.9219 21.2305 14.8359 21.2305 12.5391C21.2305 7.75781 17.3164 3.80859 12.5 3.80859C7.68359 3.80859 3.76953 7.75781 3.76953 12.5391ZM7.17969 12.5391C7.17969 13.8047 7.625 14.9766 8.38672 15.9023C8.5625 16.125 8.79688 16.1367 9.00781 15.9023L9.59375 15.3047C9.78125 15.1055 9.76953 14.9062 9.62891 14.6953C9.17188 14.0977 8.90234 13.3359 8.90234 12.5391C8.90234 10.5703 10.543 8.94141 12.5 8.94141C14.457 8.94141 16.0977 10.5703 16.0977 12.5391C16.0977 13.3359 15.8281 14.0977 15.3711 14.6953C15.2188 14.918 15.2188 15.1055 15.4062 15.3047L15.9922 15.9141C16.2031 16.1367 16.4258 16.1367 16.6133 15.8906C17.375 14.9766 17.8203 13.8164 17.8203 12.5391C17.8203 9.62109 15.4297 7.21875 12.5 7.21875C9.57031 7.21875 7.17969 9.62109 7.17969 12.5391ZM4.71875 23.2383C4.34375 23.6719 4.56641 24.2812 5.16406 24.2812H19.8242C20.4219 24.2812 20.6445 23.6719 20.2695 23.2383L13.0273 15.0469C12.7461 14.7188 12.2422 14.7188 11.9492 15.0469L4.71875 23.2383Z" fill="#111111" fill-opacity="0.6"/>
</svg>
